<svg width="252" height="221" viewBox="0 0 252 221" fill="none" xmlns="http://www.w3.org/2000/svg">
<path d="M111.476 29.9581C118.516 51.0776 111.328 72.3941 95.4272 77.6124C79.526 82.8307 60.9172 69.9326 53.8774 48.8131C46.8375 27.6936 54.025 6.37713 69.9262 1.15879C85.8274 -4.05955 104.436 8.83861 111.476 29.9581ZM49.3975 81.9938C58.7019 97.9442 56.4373 116.504 44.376 123.396C32.3148 130.288 14.9859 122.953 5.73078 107.002C-3.52439 91.0521 -1.35829 72.4925 10.703 65.6004C22.7642 58.7082 40.0931 66.0434 49.3482 81.9938H49.3975ZM34.0378 181.733C59.8341 112.172 105.667 94.4982 125.999 94.4982C146.331 94.4982 192.163 112.172 217.96 181.733C219.732 186.508 220.52 191.628 220.52 196.748V197.536C220.52 210.237 210.231 220.526 197.529 220.526C191.868 220.526 186.256 219.837 180.791 218.458L137.469 207.628C129.937 205.757 122.06 205.757 114.528 207.628L71.2062 218.458C65.7417 219.837 60.1295 220.526 54.4681 220.526C41.7669 220.526 31.4779 210.237 31.4779 197.536V196.748C31.4779 191.628 32.2655 186.508 34.0378 181.733ZM207.621 123.396C195.56 116.504 193.296 97.9442 202.6 81.9938C211.904 66.0434 229.184 58.7082 241.245 65.6004C253.307 72.4925 255.571 91.0521 246.267 107.002C236.962 122.953 219.683 130.288 207.621 123.396ZM152.632 77.6124C136.731 72.3941 129.543 51.0776 136.583 29.9581C143.623 8.83861 162.232 -4.05955 178.133 1.15879C194.034 6.37713 201.222 27.6936 194.182 48.8131C187.142 69.9326 168.533 82.8307 152.632 77.6124Z" fill="#EDEDED" fill-opacity="0.87"/>
</svg>
