<svg width="209" height="209" viewBox="0 0 209 209" fill="none" xmlns="http://www.w3.org/2000/svg">
<path d="M117.48 78.3333H124.457C133.473 93.9592 150.364 104.444 169.702 104.444C174.19 104.444 178.596 103.873 182.758 102.812V104.444V117.5V195.833C182.758 203.055 176.924 208.889 169.702 208.889C162.481 208.889 156.647 203.055 156.647 195.833V138.389L101.161 182.778H124.008C131.229 182.778 137.063 188.612 137.063 195.833C137.063 203.055 131.229 208.889 124.008 208.889H65.2579C43.6346 208.889 26.0912 191.345 26.0912 169.722V78.5373C26.0912 71.9687 21.1954 66.3793 14.6676 65.5634L11.4445 65.1554C4.30473 64.2578 -0.795099 57.73 0.10247 50.5903C1.00004 43.4505 7.52782 38.3507 14.6676 39.2483L17.8907 39.6562C37.474 42.1042 52.2023 58.75 52.2023 78.5373V113.339C66.237 92.2456 90.2266 78.3333 117.48 78.3333ZM182.758 89.145C178.678 90.5729 174.272 91.3889 169.702 91.3889C158.116 91.3889 147.671 86.3299 140.49 78.3333C138.981 76.6606 137.635 74.8654 136.451 72.9479C132.698 66.9097 130.536 59.8108 130.536 52.2222V13.0556V4.89583V4.36545C130.536 1.95833 132.453 0.0407986 134.86 0H134.942C136.288 0 137.553 0.652778 138.369 1.71354V1.75434L143.591 8.6901L154.688 23.5L156.647 26.1111H182.758L184.716 23.5L195.813 8.6901L201.036 1.75434V1.71354C201.852 0.652778 203.116 0 204.463 0H204.544C206.951 0.0407986 208.869 1.95833 208.869 4.36545V4.89583V13.0556V52.2222C208.869 59.2804 206.992 65.9306 203.728 71.6424C199.118 79.7205 191.652 86.0035 182.758 89.145ZM163.175 52.2222C163.175 50.4909 162.487 48.8306 161.263 47.6064C160.038 46.3822 158.378 45.6944 156.647 45.6944C154.915 45.6944 153.255 46.3822 152.031 47.6064C150.807 48.8306 150.119 50.4909 150.119 52.2222C150.119 53.9535 150.807 55.6139 152.031 56.8381C153.255 58.0623 154.915 58.75 156.647 58.75C158.378 58.75 160.038 58.0623 161.263 56.8381C162.487 55.6139 163.175 53.9535 163.175 52.2222ZM182.758 58.75C184.489 58.75 186.15 58.0623 187.374 56.8381C188.598 55.6139 189.286 53.9535 189.286 52.2222C189.286 50.4909 188.598 48.8306 187.374 47.6064C186.15 46.3822 184.489 45.6944 182.758 45.6944C181.027 45.6944 179.366 46.3822 178.142 47.6064C176.918 48.8306 176.23 50.4909 176.23 52.2222C176.23 53.9535 176.918 55.6139 178.142 56.8381C179.366 58.0623 181.027 58.75 182.758 58.75Z" fill="#FB8A70"/>
</svg>
